<?xml version="1.0" encoding="UTF-8"?>
<svg width="32px" height="32px" viewBox="0 0 32 32" version="1.1" xmlns="http://www.w3.org/2000/svg" xmlns:xlink="http://www.w3.org/1999/xlink">
    <!-- Generator: Sketch 51.3 (57544) - http://www.bohemiancoding.com/sketch -->
    <title>icon / off / hide hover</title>
    <desc>Created with Sketch.</desc>
    <defs>
        <path d="M24.4954799,18.1971099 C25.1525627,17.7063819 25.6881813,17.2121955 26.0416291,16.7580736 C26.3576586,16.3529465 26.613074,15.7244067 26.0345226,15.0331277 C24.7720924,13.5246766 22.3269382,12.0687567 19.8974719,11.2146773 C20.6674928,12.107949 21.131425,13.261414 21.131425,14.5208007 C21.131425,14.7612938 21.1145073,14.9979243 21.0817711,15.229618 L14.193089,9.24137812 C14.7777289,9.14459121 15.3407373,9.09279497 15.8672345,9.09279497 L16.0152166,9.09279497 C19.6294906,9.09279497 24.9626976,11.533121 27.2058383,14.2129272 C28.0586164,15.2324394 28.0724113,16.4768948 27.2426248,17.5415487 C26.8386038,18.060312 26.2645964,18.6025226 25.572641,19.1334717 L24.4954799,18.1971099 Z M18.3895267,21.1138444 L19.6147054,22.178876 C18.3490868,22.5733856 17.0847579,22.8104952 15.9412255,22.8104952 C11.9540701,22.8104952 6.49838072,19.9279342 4.6398262,17.5415487 C3.81087577,16.4768948 3.82425268,15.232822 4.67703073,14.2129272 C5.39894283,13.350161 6.44132106,12.5122176 7.64358672,11.7725413 L8.73706658,12.7230888 C7.55510658,13.4202362 6.52924938,14.2190317 5.84792844,15.0331277 C5.27021311,15.7244067 5.52479244,16.3529465 5.84082195,16.7580736 C6.62044503,17.7592231 8.28503434,18.9550938 10.1845556,19.8793496 C12.2508703,20.8843247 14.3493732,21.4608369 15.9412255,21.4608369 C16.6687978,21.4608369 17.5019813,21.3404645 18.3895267,21.1138444 Z M10.6225605,14.3621237 L16.6487585,19.6006177 C16.3965519,19.6369248 16.1385117,19.6557301 15.8759713,19.6557301 C12.9727636,19.6557301 10.6200995,17.3568372 10.6200995,14.5208007 C10.6200995,14.4677163 10.6209238,14.4148201 10.6225605,14.3621237 Z M4,7.46257643 L6.9407358,4.07964687 L28,22.3861859 L25.0592642,25.7691155 L4,7.46257643 Z" id="path-1"></path>
    </defs>
    <g id="icon-/-off-/-hide-hover" stroke="none" stroke-width="1" fill="none" fill-rule="evenodd">
        <g id="ic_visible_off_off">
            <rect id="Area" x="0" y="0" width="32" height="32"></rect>
        </g>
        <mask id="mask-2" fill="white">
            <use xlink:href="#path-1"></use>
        </mask>
        <use id="icn_show" fill="#0D7DEE" xlink:href="#path-1"></use>
    </g>
</svg>