<?xml version="1.0" encoding="UTF-8"?>
<svg width="32px" height="32px" viewBox="0 0 32 32" version="1.1" xmlns="http://www.w3.org/2000/svg" xmlns:xlink="http://www.w3.org/1999/xlink">
    <!-- Generator: Sketch 51.3 (57544) - http://www.bohemiancoding.com/sketch -->
    <title>icon / off / show hover</title>
    <desc>Created with Sketch.</desc>
    <defs>
        <path d="M19.9845915,11.137226 C20.7601806,12.0369571 21.2274675,13.198763 21.2274675,14.4672565 C21.2274675,17.3238008 18.8577909,19.6393174 15.9340108,19.6393174 C13.0098096,19.6393174 10.640133,17.3238008 10.640133,14.4672565 C10.640133,13.2304017 11.0844005,12.0949789 11.8255869,11.2050359 C9.44167636,12.0732129 7.07219441,13.5031429 5.83345359,14.9832882 C5.25156071,15.679566 5.50798094,16.3126509 5.82629571,16.7207074 C6.61155636,17.7290965 8.28818258,18.9336147 10.2014396,19.8645539 C12.2826961,20.8767962 14.3963736,21.4574772 15.9997369,21.4574772 C17.6035212,21.4574772 19.7167776,20.8767962 21.7984552,19.8645539 C23.7117122,18.9336147 25.3883384,17.7290965 26.173178,16.7207074 C26.4914928,16.3126509 26.7487552,15.679566 26.1660202,14.9832882 C24.8944612,13.4639292 22.4316257,11.9974814 19.9845915,11.137226 Z M16.074263,9 C19.7146724,9 25.0864447,11.4579724 27.3458059,14.1571567 C28.2047505,15.1840412 28.2186452,16.4374954 27.3828584,17.509848 C25.5108644,19.9134899 20.015724,22.8168951 15.9997369,22.8168951 C11.9837497,22.8168951 6.48860939,19.9134899 4.61661537,17.509848 C3.78167067,16.4374954 3.79514431,15.1844265 4.65408893,14.1571567 C6.91260803,11.4579724 12.2852224,9 15.9252108,9 L16.074263,9 Z M15.9340108,16.1792082 C16.9015866,16.1792082 17.6864262,15.4127179 17.6864262,14.4672565 C17.6864262,13.521795 16.9015866,12.7553047 15.9340108,12.7553047 C14.9660139,12.7553047 14.1815953,13.521795 14.1815953,14.4672565 C14.1815953,15.4127179 14.9660139,16.1792082 15.9340108,16.1792082 Z" id="path-1"></path>
    </defs>
    <g id="icon-/-off-/-show-hover" stroke="none" stroke-width="1" fill="none" fill-rule="evenodd">
        <g id="ic_visible_off">
            <rect id="Area" x="0" y="0" width="32" height="32"></rect>
            <mask id="mask-2" fill="white">
                <use xlink:href="#path-1"></use>
            </mask>
            <use id="icn_show" fill="#0D7DEE" xlink:href="#path-1"></use>
        </g>
    </g>
</svg>